Coordinates
version=1
nRows=21
nColumns=19
inDegrees=yes

Units are S.I. units (second, meters, Newtons, ...)
If the header above contains a line with 'inDegrees', this indicates whether rotational values are in degrees (yes) or radians (no).

endheader
time	pelvis_tilt	pelvis_list	pelvis_rotation	pelvis_tx	pelvis_ty	pelvis_tz	hip_flexion_r	hip_adduction_r	hip_rotation_r	knee_angle_r	knee_angle_r_beta	ankle_angle_r	hip_flexion_l	hip_adduction_l	hip_rotation_l	knee_angle_l	knee_angle_l_beta	ankle_angle_l
     15.11333333	      4.08256599	     -7.14026419	     -4.80659108	      2.23003542	      0.97626125	      1.05843019	     12.91593406	      9.91921120	    -14.39142323	     19.47141155	      0.33984024	      0.81955379	    -14.63673701	    -13.79954467	    -15.78326915	     65.08578671	      1.13596127	     -5.32338691
     15.12000000	      4.80635179	     -7.58208734	     -4.84382743	      2.22932950	      0.97154098	      1.05875687	     12.06561452	     10.30147097	    -14.72578765	     21.06614770	      0.36767364	      2.58293897	    -13.94328447	    -14.58842603	    -15.00418060	     68.87911092	      1.20216727	     -4.33483825
     15.12666667	      5.01339842	     -7.74789327	     -4.54927542	      2.22824286	      0.96634458	      1.05853801	     11.94179112	     10.27105176	    -15.40328160	     23.04037247	      0.40213036	      4.50789225	    -12.27288753	    -15.06867904	    -13.48014402	     72.78098577	      1.27026783	     -3.45341057
     15.13333333	      5.47395401	     -7.86740466	     -4.42777490	      2.22688905	      0.96141178	      1.05819025	     11.59132482	     10.17022384	    -15.68399816	     25.25558120	      0.44079305	      6.78934412	    -10.91262118	    -15.38196313	    -12.21451911	     76.45285500	      1.33435404	     -2.64864901
     15.14000000	      5.96919300	     -7.85290691	     -4.25852710	      2.22524513	      0.95667734	      1.05758089	     11.24142979	      9.87721218	    -15.87450301	     27.59190343	      0.48156956	      9.13469117	     -9.47099192	    -15.49236890	    -10.87607508	     79.96664465	      1.39568124	     -1.93302844
     15.14666667	      6.18127902	     -7.70844636	     -4.13904376	      2.22335121	      0.95191733	      1.05684759	     11.22705045	      9.45923405	    -15.85071052	     30.00865213	      0.52374978	     11.53383443	     -7.61155654	    -15.43564067	     -9.54398681	     83.35576777	      1.45483260	     -1.33695856
     15.15333333	      6.56793528	     -7.44283904	     -3.94646986	      2.22120959	      0.94771722	      1.05587486	     11.00419283	      8.87302627	    -15.75931906	     32.37440256	      0.56503992	     13.84974047	     -5.85896090	    -15.17710088	     -8.18713635	     86.48800966	      1.50950053	     -0.85098749
     15.16000000	      6.71204777	     -7.06855842	     -3.81254920	      2.21890287	      0.94365298	      1.05485680	     11.01030248	      8.19805707	    -15.49387538	     34.65884446	      0.60491095	     15.96769112	     -3.78273412	    -14.80402974	     -6.93046894	     89.43689737	      1.56096833	     -0.38847331
     15.16666667	      6.87840893	     -6.63388009	     -3.69528888	      2.21638349	      0.94014748	      1.05382721	     10.91182998	      7.46076003	    -15.15215748	     36.75127308	      0.64143072	     17.89018094	     -1.69108957	    -14.36903310	     -5.80432611	     92.10406222	      1.60751914	     -0.04362191
     15.17333333	      7.16583803	     -6.11558797	     -3.53237357	      2.21388286	      0.93733921	      1.05278974	     10.54592781	      6.62955123	    -14.82596977	     38.57091667	      0.67318949	     19.57124015	      0.27124352	    -13.82295920	     -4.75218223	     94.43534534	      1.64820771	      0.25106036
     15.18000000	      7.17033524	     -5.60341763	     -3.45864914	      2.21132138	      0.93479750	      1.05193085	     10.36353832	      5.86580137	    -14.40605757	     40.11618493	      0.70015951	     20.96150578	      2.54247390	    -13.35437620	     -3.90091097	     96.51665086	      1.68453334	      0.51842147
     15.18666667	      7.37851223	     -5.05203952	     -3.34627582	      2.20892376	      0.93313993	      1.05109430	      9.76137289	      5.03715698	    -14.10403057	     41.30398777	      0.72089058	     22.07976556	      4.54946836	    -12.83190064	     -3.15738396	     98.20589611	      1.71401623	      0.71861238
     15.19333333	      7.58050525	     -4.52683017	     -3.25503011	      2.20665204	      0.93211638	      1.05047043	      8.97395766	      4.28454942	    -13.81156639	     42.12210243	      0.73516938	     23.00453779	      6.50098649	    -12.40763623	     -2.59203343	     99.54572230	      1.73740061	      0.93905245
     15.20000000	      7.97293451	     -4.24187404	     -3.37839950	      2.20460712	      0.93189820	      1.05022111	      7.75865313	      3.87748042	    -13.30632097	     42.52052710	      0.74212320	     23.55987740	      8.05506312	    -12.35915307	     -2.40324279	    100.50269855	      1.75410300	      1.10254456
     15.20666667	      7.63080569	     -3.46853982	     -3.20351344	      2.20289223	      0.93161079	      1.04974585	      7.23803180	      2.87501720	    -13.36951953	     42.78722111	      0.74677789	     24.14078538	     10.54352836	    -11.65287660	     -1.93521041	    101.18399377	      1.76599384	      1.21001331
     15.21333333	      7.84636458	     -3.16591604	     -3.44535270	      2.20127770	      0.93224979	      1.04993184	      5.95643209	      2.44580180	    -13.07542369	     42.75104879	      0.74614656	     24.14237826	     12.09732713	    -11.77723548	     -2.16603235	    101.49261919	      1.77138037	      1.37891198
     15.22000000	      7.90371842	     -2.39370805	     -3.23443060	      2.20044109	      0.93389600	      1.04968084	      4.49685418	      1.60312292	    -13.05355044	     42.08684614	      0.73455404	     24.48278509	     13.81634608	    -10.99631402	     -1.92983144	    101.29247337	      1.76788717	      1.42849630
     15.22666667	      8.01729795	     -1.82956781	     -3.27497933	      2.19974469	      0.93592895	      1.04984220	      2.91081801	      1.00320679	    -12.91613448	     41.29644658	      0.72075896	     24.32665016	     15.25603937	    -10.65958905	     -2.13773828	    100.81169141	      1.75949594	      1.53815203
     15.23333333	      7.82786279	     -1.27963018	     -3.41191972	      2.19946998	      0.93820402	      1.05022299	      1.55829397	      0.50036002	    -12.62437764	     40.31821203	      0.70368555	     23.92985149	     16.85610772	    -10.40074218	     -2.53601083	    100.02283265	      1.74572776	      1.61188956
     15.24000000	      7.56531332	     -0.69051959	     -3.53892146	      2.19957182	      0.94094806	      1.05062844	      0.17578836	     -0.03426974	    -12.38613209	     39.13056753	      0.68295724	     23.29605371	     18.37680542	    -10.09423892	     -3.04372822	     98.91380781	      1.72637162	      1.70466315
     15.24666667	      8.16189853	      0.00205152	     -3.60442025	      2.20012542	      0.94516595	      1.05107187	     -2.33273354	     -0.72769538	    -12.30513035	     37.57315271	      0.65577523	     22.34679199	     18.68665158	     -9.62265224	     -3.71896390	     97.32566914	      1.69865337	      1.83906163
